<?xml version="1.0" encoding="iso-8859-1"?>
<!-- Generator: Adobe Illustrator 26.4.1, SVG Export Plug-In . SVG Version: 6.00 Build 0)  -->
<svg version="1.1" id="&#x56FE;&#x5C42;_1" xmlns="http://www.w3.org/2000/svg" xmlns:xlink="http://www.w3.org/1999/xlink" x="0px"
	 y="0px" viewBox="0 0 1419.797 276.977" style="enable-background:new 0 0 1419.797 276.977;" xml:space="preserve">
<g>
	<g>
		<linearGradient id="SVGID_1_" gradientUnits="userSpaceOnUse" x1="12.3937" y1="4.9629" x2="208.3431" y2="249.3493">
			<stop  offset="0" style="stop-color:#0B86FD"/>
			<stop  offset="1" style="stop-color:#EB43D4"/>
		</linearGradient>
		<path style="fill:url(#SVGID_1_);" d="M74.162,88.355H20.309c-7.156,0-13.011-5.855-13.011-13.011V21.491
			c0-7.156,5.855-13.011,13.011-13.011h53.853c7.156,0,13.011,5.855,13.011,13.011v53.853C87.173,82.5,81.318,88.355,74.162,88.355z
			"/>
		
			<linearGradient id="SVGID_00000161614369564122839390000004199108444535071904_" gradientUnits="userSpaceOnUse" x1="68.0495" y1="-39.662" x2="263.9989" y2="204.7243">
			<stop  offset="0" style="stop-color:#0B86FD"/>
			<stop  offset="1" style="stop-color:#EB43D4"/>
		</linearGradient>
		<path style="fill:url(#SVGID_00000161614369564122839390000004199108444535071904_);" d="M165.598,88.355h-53.853
			c-7.156,0-13.011-5.855-13.011-13.011V21.491c0-7.156,5.855-13.011,13.011-13.011h53.853c7.156,0,13.011,5.855,13.011,13.011
			v53.853C178.609,82.5,172.754,88.355,165.598,88.355z"/>
		
			<linearGradient id="SVGID_00000095332490713211039550000000150853327767775654_" gradientUnits="userSpaceOnUse" x1="123.913" y1="-84.4535" x2="319.8624" y2="159.9329">
			<stop  offset="0" style="stop-color:#0B86FD"/>
			<stop  offset="1" style="stop-color:#EB43D4"/>
		</linearGradient>
		<path style="fill:url(#SVGID_00000095332490713211039550000000150853327767775654_);" d="M257.375,88.355h-53.853
			c-7.156,0-13.011-5.855-13.011-13.011V21.491c0-7.156,5.855-13.011,13.011-13.011h53.853c7.156,0,13.011,5.855,13.011,13.011
			v53.853C270.386,82.5,264.531,88.355,257.375,88.355z"/>
		
			<linearGradient id="SVGID_00000088104632829771093340000017965870965604355733_" gradientUnits="userSpaceOnUse" x1="-31.5652" y1="40.2093" x2="164.3842" y2="284.5956">
			<stop  offset="0" style="stop-color:#0B86FD"/>
			<stop  offset="1" style="stop-color:#EB43D4"/>
		</linearGradient>
		<path style="fill:url(#SVGID_00000088104632829771093340000017965870965604355733_);" d="M74.162,178.426H20.309
			c-7.156,0-13.011-5.855-13.011-13.011v-53.853c0-7.156,5.855-13.011,13.011-13.011h53.853c7.156,0,13.011,5.855,13.011,13.011
			v53.853C87.173,172.571,81.318,178.426,74.162,178.426z"/>
		
			<linearGradient id="SVGID_00000008862921118856233800000007060852882689238968_" gradientUnits="userSpaceOnUse" x1="24.0906" y1="-4.4157" x2="220.04" y2="239.9707">
			<stop  offset="0" style="stop-color:#0B86FD"/>
			<stop  offset="1" style="stop-color:#EB43D4"/>
		</linearGradient>
		<path style="fill:url(#SVGID_00000008862921118856233800000007060852882689238968_);" d="M165.598,178.426h-53.853
			c-7.156,0-13.011-5.855-13.011-13.011v-53.853c0-7.156,5.855-13.011,13.011-13.011h53.853c7.156,0,13.011,5.855,13.011,13.011
			v53.853C178.609,172.571,172.754,178.426,165.598,178.426z"/>
		
			<linearGradient id="SVGID_00000094605649881625656280000010567456063251556279_" gradientUnits="userSpaceOnUse" x1="79.9541" y1="-49.2071" x2="275.9035" y2="195.1792">
			<stop  offset="0" style="stop-color:#0B86FD"/>
			<stop  offset="1" style="stop-color:#EB43D4"/>
		</linearGradient>
		<path style="fill:url(#SVGID_00000094605649881625656280000010567456063251556279_);" d="M257.375,178.426h-53.853
			c-7.156,0-13.011-5.855-13.011-13.011v-53.853c0-7.156,5.855-13.011,13.011-13.011h53.853c7.156,0,13.011,5.855,13.011,13.011
			v53.853C270.386,172.571,264.531,178.426,257.375,178.426z"/>
		
			<linearGradient id="SVGID_00000175300385452194962760000009039360658817051523_" gradientUnits="userSpaceOnUse" x1="-75.5241" y1="75.4556" x2="120.4253" y2="319.8419">
			<stop  offset="0" style="stop-color:#0B86FD"/>
			<stop  offset="1" style="stop-color:#EB43D4"/>
		</linearGradient>
		<path style="fill:url(#SVGID_00000175300385452194962760000009039360658817051523_);" d="M74.162,268.498H20.309
			c-7.156,0-13.011-5.855-13.011-13.011v-53.853c0-7.156,5.855-13.011,13.011-13.011h53.853c7.156,0,13.011,5.855,13.011,13.011
			v53.853C87.173,262.642,81.318,268.498,74.162,268.498z"/>
		
			<linearGradient id="SVGID_00000029746579944838147950000016224894801792562615_" gradientUnits="userSpaceOnUse" x1="-19.8683" y1="30.8306" x2="176.0811" y2="275.217">
			<stop  offset="0" style="stop-color:#0B86FD"/>
			<stop  offset="1" style="stop-color:#EB43D4"/>
		</linearGradient>
		<path style="fill:url(#SVGID_00000029746579944838147950000016224894801792562615_);" d="M165.598,268.498h-53.853
			c-7.156,0-13.011-5.855-13.011-13.011v-53.853c0-7.156,5.855-13.011,13.011-13.011h53.853c7.156,0,13.011,5.855,13.011,13.011
			v53.853C178.609,262.642,172.754,268.498,165.598,268.498z"/>
	</g>
	<g>
		<g>
			<path style="fill:#FFFFFF;" d="M345.026,198.78V89.293h40.835c10.966,0,19.883,3.39,26.75,10.169
				c6.866,6.779,10.3,16.082,10.3,27.907c0,11.673-3.604,20.81-10.81,27.409c-7.206,6.602-16.026,9.902-26.459,9.902h-27.951
				v-20.491h26.131c4.755,0,8.613-1.517,11.574-4.55c2.959-3.031,4.44-7.02,4.44-11.965c0-4.995-1.456-9.085-4.367-12.271
				c-2.912-3.185-6.673-4.778-11.283-4.778h-16.159v88.155H345.026z"/>
			<path style="fill:#FFFFFF;" d="M435.284,198.78v-78.598h21.764v15.062l-2.256-3.059h2.766c1.407-4.332,4.04-7.862,7.898-10.589
				c3.858-2.727,7.994-4.091,12.411-4.091c1.358,0,2.741,0.128,4.149,0.382c1.407,0.256,3.299,0.816,5.678,1.682v22.173
				c-3.106-1.224-5.568-2.051-7.388-2.485c-1.82-0.432-3.555-0.65-5.205-0.65c-5.047,0-9.147,1.874-12.301,5.62
				c-3.155,3.746-4.731,8.576-4.731,14.488v40.064H435.284z"/>
			<path style="fill:#FFFFFF;" d="M531.441,201.456c-11.987,0-21.837-3.949-29.553-11.852c-7.716-7.9-11.574-17.94-11.574-30.123
				c0-12.283,3.869-22.351,11.61-30.201c7.74-7.849,17.579-11.774,29.517-11.774s21.775,3.938,29.516,11.813
				c7.74,7.875,11.61,17.928,11.61,30.163c0,12.183-3.846,22.223-11.537,30.123C553.338,197.507,543.475,201.456,531.441,201.456z
				 M531.441,181.424c5.386,0,9.887-2.063,13.502-6.192c3.614-4.129,5.423-9.379,5.423-15.75c0-6.473-1.82-11.748-5.459-15.827
				c-3.639-4.077-8.128-6.117-13.466-6.117c-5.387,0-9.899,2.04-13.539,6.117c-3.64,4.079-5.459,9.354-5.459,15.827
				c0,6.371,1.807,11.621,5.423,15.75C521.48,179.36,526.006,181.424,531.441,181.424z"/>
			<path style="fill:#FFFFFF;" d="M620.68,201.456c-11.599,0-21.158-3.938-28.679-11.812c-7.522-7.875-11.283-17.93-11.283-30.162
				c0-12.387,3.736-22.479,11.209-30.277c7.473-7.799,17.106-11.698,28.898-11.698c5.434,0,10.336,0.791,14.704,2.37
				c4.367,1.581,8.322,4.052,11.865,7.417c3.542,3.364,6.575,8.156,9.099,14.375l-18.853,7.568c-1.456-3.16-2.912-5.529-4.368-7.11
				c-1.456-1.579-3.179-2.753-5.168-3.517c-1.99-0.764-4.198-1.146-6.624-1.146c-5.144,0-9.535,2.026-13.175,6.079
				c-3.64,4.052-5.459,9.315-5.459,15.788c0,6.524,1.794,11.839,5.386,15.94c3.59,4.104,7.958,6.155,13.102,6.155
				c2.426,0,4.683-0.407,6.77-1.224c2.086-0.814,3.845-1.949,5.277-3.402c1.431-1.452,2.972-3.834,4.622-7.148l19.071,6.117
				c-2.523,6.627-5.448,11.635-8.771,15.023c-3.324,3.391-7.304,6.016-11.938,7.875C631.731,200.525,626.502,201.456,620.68,201.456
				z"/>
			<path style="fill:#FFFFFF;" d="M695.724,201.456c-8.735,0-15.565-2.6-20.49-7.799c-4.926-5.199-7.388-12.564-7.388-22.096
				v-51.379h22.783v47.633c0,5.097,1.14,9.01,3.421,11.735c2.28,2.728,5.483,4.091,9.608,4.091c4.319,0,7.946-1.746,10.883-5.238
				c2.936-3.49,4.403-7.76,4.403-12.806v-45.416h22.783v78.598h-21.473v-21.256l10.409,10.934h-10.919
				c-2.038,3.822-5.156,6.945-9.354,9.366C706.194,200.245,701.305,201.456,695.724,201.456z"/>
			<path style="fill:#FFFFFF;" d="M756.431,198.78v-78.598h21.765v15.062l-2.257-3.059h2.766c1.407-4.332,4.04-7.862,7.898-10.589
				c3.857-2.727,7.994-4.091,12.41-4.091c1.358,0,2.741,0.128,4.149,0.382c1.407,0.256,3.299,0.816,5.678,1.682v22.173
				c-3.106-1.224-5.568-2.051-7.389-2.485c-1.819-0.432-3.555-0.65-5.204-0.65c-5.048,0-9.147,1.874-12.302,5.62
				c-3.155,3.746-4.731,8.576-4.731,14.488v40.064H756.431z"/>
			<path style="fill:#FFFFFF;" d="M848.073,201.456c-11.938,0-21.51-3.949-28.716-11.852c-7.206-7.9-10.81-17.94-10.81-30.123
				c0-12.131,3.64-22.16,10.919-30.086c7.279-7.925,16.717-11.889,28.315-11.889c10.869,0,19.835,3.582,26.896,10.742
				c7.062,7.162,10.591,16.351,10.591,27.563v8.257h-65.802v-11.927h44.839c-0.341-4.791-1.979-8.678-4.914-11.66
				c-2.937-2.982-6.831-4.473-11.683-4.473c-5.339,0-9.597,2.001-12.774,6.002c-3.179,4.002-4.768,9.545-4.768,16.629
				c0,7.697,1.867,13.775,5.604,18.235c3.736,4.46,8.71,6.69,14.922,6.69c2.767,0,5.229-0.408,7.389-1.225
				c2.158-0.814,4.1-1.885,5.823-3.211c1.722-1.324,3.724-3.465,6.005-6.422l13.321,10.857c-3.494,4.842-6.868,8.436-10.119,10.779
				c-3.251,2.346-6.806,4.117-10.663,5.314C858.59,200.856,853.798,201.456,848.073,201.456z"/>
			<path style="fill:#FFFFFF;" d="M898.298,198.78v-78.598h21.764v14.145l-1.892-2.752h2.401c2.086-4.129,5.313-7.505,9.682-10.131
				c4.367-2.625,9.122-3.938,14.267-3.938c5.24,0,9.899,1.262,13.976,3.785c4.076,2.523,7.012,6.028,8.808,10.513
				c3.008-4.894,6.733-8.499,11.173-10.819c4.44-2.319,9.256-3.479,14.449-3.479c9.025,0,15.832,2.714,20.417,8.143
				c4.586,5.428,6.879,13.036,6.879,22.823v50.309h-22.638v-45.951c0-5.249-1.056-9.187-3.166-11.812
				c-2.111-2.625-5.277-3.938-9.499-3.938c-4.125,0-7.534,1.695-10.228,5.084c-2.693,3.391-4.039,7.659-4.039,12.807v43.811h-22.783
				v-45.875c0-5.301-1.056-9.275-3.167-11.927c-2.11-2.65-5.253-3.976-9.426-3.976c-4.125,0-7.522,1.733-10.19,5.2
				c-2.67,3.467-4.004,7.773-4.004,12.921v43.657H898.298z"/>
			<path style="fill:#FFFFFF;" d="M1071.756,201.456c-11.938,0-21.51-3.949-28.716-11.852c-7.206-7.9-10.81-17.94-10.81-30.123
				c0-12.131,3.64-22.16,10.919-30.086c7.278-7.925,16.716-11.889,28.314-11.889c10.87,0,19.836,3.582,26.896,10.742
				c7.061,7.162,10.591,16.351,10.591,27.563v8.257h-65.802v-11.927h44.838c-0.34-4.791-1.978-8.678-4.913-11.66
				c-2.937-2.982-6.831-4.473-11.683-4.473c-5.339,0-9.597,2.001-12.774,6.002c-3.18,4.002-4.768,9.545-4.768,16.629
				c0,7.697,1.867,13.775,5.604,18.235c3.736,4.46,8.71,6.69,14.922,6.69c2.766,0,5.229-0.408,7.388-1.225
				c2.159-0.814,4.101-1.885,5.823-3.211c1.723-1.324,3.724-3.465,6.006-6.422l13.32,10.857c-3.494,4.842-6.867,8.436-10.118,10.779
				c-3.251,2.346-6.806,4.117-10.663,5.314C1082.274,200.856,1077.481,201.456,1071.756,201.456z"/>
			<path style="fill:#FFFFFF;" d="M1121.981,120.182h21.764v14.527l-2.256-3.135h2.766c2.426-4.383,5.933-7.824,10.519-10.322
				c4.586-2.497,9.28-3.747,14.085-3.747c8.298,0,14.86,2.651,19.689,7.952c4.828,5.302,7.242,12.412,7.242,21.332v51.991h-22.783
				v-46.41c0-4.994-1.153-8.793-3.457-11.392c-2.306-2.6-5.666-3.899-10.082-3.899c-4.222,0-7.728,1.682-10.518,5.046
				c-2.791,3.364-4.186,7.519-4.186,12.463v44.192h-22.783V120.182z"/>
			<path style="fill:#FFFFFF;" d="M1203.869,138.226v-18.044h51.681v18.044H1203.869z M1240.919,201.456
				c-8.152,0-14.51-2.244-19.07-6.729c-4.562-4.484-6.843-11.213-6.843-20.185V98.774h22.711v72.557c0,3.773,0.751,6.59,2.256,8.449
				c1.504,1.861,3.736,2.791,6.697,2.791c0.97,0,1.952-0.089,2.947-0.268c0.994-0.178,3.021-0.803,6.078-1.873v18.426
				c-3.834,1.172-6.648,1.898-8.443,2.179C1245.456,201.315,1243.345,201.456,1240.919,201.456z"/>
		</g>
		<g>
			
				<linearGradient id="SVGID_00000005970602668834863570000003813206274532528309_" gradientUnits="userSpaceOnUse" x1="1349.1161" y1="238.7777" x2="1298.7229" y2="137.5113">
				<stop  offset="0" style="stop-color:#E53DCB"/>
				<stop  offset="0.1522" style="stop-color:#DD3FCE"/>
				<stop  offset="0.3823" style="stop-color:#C946D6"/>
				<stop  offset="0.6618" style="stop-color:#A751E3"/>
				<stop  offset="0.9775" style="stop-color:#7861F6"/>
				<stop  offset="1" style="stop-color:#7462F7"/>
			</linearGradient>
			<path style="fill:url(#SVGID_00000005970602668834863570000003813206274532528309_);" d="M1271.142,198.78l41.679-106.153h21.636
				l41.604,106.153h-26.192l-22.092-63.677l-4.099-13.417h-0.531l-4.1,13.343l-22.32,63.751H1271.142z M1291.26,178.172l6.453-17.05
				h49.422l6.756,17.05H1291.26z"/>
			
				<linearGradient id="SVGID_00000164511402334695553460000012596563125963491767_" gradientUnits="userSpaceOnUse" x1="1427.3065" y1="199.8677" x2="1376.9133" y2="98.6013">
				<stop  offset="0" style="stop-color:#E53DCB"/>
				<stop  offset="0.1522" style="stop-color:#DD3FCE"/>
				<stop  offset="0.3823" style="stop-color:#C946D6"/>
				<stop  offset="0.6618" style="stop-color:#A751E3"/>
				<stop  offset="0.9775" style="stop-color:#7861F6"/>
				<stop  offset="1" style="stop-color:#7462F7"/>
			</linearGradient>
			<path style="fill:url(#SVGID_00000164511402334695553460000012596563125963491767_);" d="M1388.206,198.78V92.627h24.294V198.78
				H1388.206z"/>
		</g>
	</g>
</g>
</svg>
